<?xml version="1.0" encoding="UTF-8" standalone="no"?>
<svg
   xmlns:dc="http://purl.org/dc/elements/1.1/"
   xmlns:cc="http://creativecommons.org/ns#"
   xmlns:rdf="http://www.w3.org/1999/02/22-rdf-syntax-ns#"
   xmlns:svg="http://www.w3.org/2000/svg"
   xmlns="http://www.w3.org/2000/svg"
   viewBox="0 0 271.74667 101.04"
   height="101.04"
   width="271.74667"
   xml:space="preserve"
   id="svg2"
   version="1.1"><metadata
     id="metadata8"><rdf:RDF><cc:Work
         rdf:about=""><dc:format>image/svg+xml</dc:format><dc:type
           rdf:resource="http://purl.org/dc/dcmitype/StillImage" /></cc:Work></rdf:RDF></metadata><defs
     id="defs6" /><g
     transform="matrix(1.3333333,0,0,-1.3333333,0,101.04)"
     id="g10"><g
       transform="scale(0.1)"
       id="g12"><path
         id="path14"
         style="fill:#f47216;fill-opacity:1;fill-rule:nonzero;stroke:none"
         d="m 1153.17,233.555 h -55.03 v 271.754 c -10.33,1.718 -24.95,3.437 -37.42,4.296 v 34.403 c 27.52,3.441 60.63,4.73 92.45,3.871 V 233.555" /><path
         id="path16"
         style="fill:#f47216;fill-opacity:1;fill-rule:nonzero;stroke:none"
         d="m 1302.38,405.117 c -24.51,0 -48.6,-18.918 -48.6,-62.773 0,-43.867 15.92,-66.219 47.74,-66.219 27.09,0 47.72,21.926 47.72,65.359 0,41.278 -14.62,63.633 -46.86,63.633 z m -5.59,-175.867 c -60.63,0 -99.76,31.395 -99.76,107.5 0,66.648 44.29,114.809 109.22,114.809 60.63,0 99.75,-33.539 99.75,-107.067 0,-67.078 -45.14,-115.242 -109.21,-115.242" /><path
         id="path18"
         style="fill:#f47216;fill-opacity:1;fill-rule:nonzero;stroke:none"
         d="m 1553.06,405.977 c -28.38,0 -45.57,-33.106 -45.57,-68.797 v -60.196 c 7.74,-2.578 16.76,-3.867 28.38,-3.867 31.38,0 53.75,19.774 53.75,72.664 0,39.989 -11.62,60.196 -36.56,60.196 z m -45.57,49.449 c 0,-12.899 -1.29,-30.528 -3.44,-41.707 h 0.43 c 10.75,23.222 34.39,37.84 64.5,37.84 51.16,0 78.68,-36.981 78.68,-100.192 0,-72.234 -42.14,-122.117 -115.66,-122.117 -30.96,0 -55.04,3.445 -79.55,10.32 v 265.739 c -10.33,1.718 -24.94,3.437 -37.42,4.296 v 34.403 c 27.52,3.441 60.64,4.73 92.46,3.871 v -92.453" /><path
         id="path20"
         style="fill:#f47216;fill-opacity:1;fill-rule:nonzero;stroke:none"
         d="m 1733.66,474.777 c -18.49,0 -33.97,15.047 -33.97,33.539 0,18.063 15.48,33.11 33.97,33.11 18.92,0 34.4,-14.617 34.4,-33.11 0,-18.492 -15.48,-33.539 -34.4,-33.539 z m 27.52,-241.222 h -54.61 v 171.562 c -10.31,1.723 -24.93,3.438 -37.4,4.305 v 34.398 c 27.09,3.438 60.19,4.727 92.01,3.868 V 233.555" /><path
         id="path22"
         style="fill:#f47216;fill-opacity:1;fill-rule:nonzero;stroke:none"
         d="m 1946.08,404.258 c -9.89,2.148 -19.36,3.437 -28.81,3.437 -31.4,0 -53.75,-19.777 -53.75,-72.664 0,-39.992 11.61,-60.625 36.54,-60.625 28.82,0 46.02,33.535 46.02,70.086 z m 3.44,-171.129 c 0,10.75 0.86,24.508 2.58,36.109 h -0.86 c -11.19,-23.64 -34.83,-40.418 -67.51,-40.418 -52.03,0 -77.84,39.129 -77.84,100.196 0,72.23 42.14,122.113 113.1,122.113 9.02,0 17.63,-0.43 27.09,-1.723 v 55.903 c -10.32,1.718 -24.94,3.437 -37.41,4.296 v 34.403 c 27.09,3.441 60.62,4.73 92.02,3.871 V 275.695 c 10.31,-1.718 24.94,-3.437 37.4,-4.297 v -34.406 c -27.09,-3.437 -60.19,-4.726 -88.57,-3.863" /><path
         id="path24"
         style="fill:#25477f;fill-opacity:1;fill-rule:nonzero;stroke:none"
         d="M 0,0.00390625 H 757.75 V 757.766 H 0 V 0.00390625" /><path
         id="path26"
         style="fill:#ffffff;fill-opacity:1;fill-rule:nonzero;stroke:none"
         d="m 183.996,449.129 c 10.891,-44.785 40.949,-168.258 49.633,-202.43 2.527,-9.961 11.148,-14.336 17.934,-16.25 16.714,-4.715 38.929,0.473 50.562,11.797 7.25,7.063 9.672,15.586 7.191,25.344 v 0 C 299.297,307.051 273.598,412.668 260.523,466.523 238.219,451.832 211.5,445.23 183.996,449.129 Z M 386.965,189.473 c 0,-53.543 -43.567,-97.1097 -97.11,-97.1097 -53.546,0 -97.109,43.5667 -97.109,97.1097 0,24.297 9.027,46.476 23.832,63.527 0.957,-3.828 1.809,-7.227 2.512,-9.992 3.348,-13.184 13.433,-22.774 28.402,-26.992 5.457,-1.543 11.305,-2.274 17.25,-2.274 17.75,0 36.344,6.555 47.852,17.754 11.043,10.762 15.043,24.891 11.265,39.785 -0.75,2.938 -1.597,6.328 -2.511,9.961 38.117,-13.125 65.617,-49.258 65.617,-91.769 z m -49.113,101.211 c 24.336,-11.563 43.871,-31.661 54.687,-56.239 67.402,66.004 147.801,144.821 166.731,163.809 7.253,7.281 6.589,16.918 4.753,23.726 -4.527,16.782 -20.355,33.196 -36.043,37.375 -9.781,2.61 -18.339,0.317 -25.441,-6.808 v -0.008 C 478.086,428.023 392.223,343.898 337.852,290.684 Z m 225.589,90.558 c 6.438,-1.34 12.938,-2.012 19.43,-2.012 53.547,0 97.109,43.567 97.109,97.11 0,53.543 -43.562,97.109 -97.109,97.109 -53.543,0 -97.109,-43.566 -97.109,-97.109 0,-5.938 0.551,-11.86 1.644,-17.711 1.676,1.668 3.18,3.176 4.508,4.508 10.852,10.879 25.008,14.687 39.93,10.711 20.715,-5.516 40.777,-26.137 46.664,-47.961 4.047,-15.016 0.984,-28.59 -8.613,-38.219 -1.676,-1.68 -3.852,-3.848 -6.454,-6.426 z M 263.488,590.125 c -8.039,0 -14.277,-4.934 -18.297,-9.449 -11.562,-12.981 -16.621,-35.215 -11.519,-50.629 3.18,-9.609 9.785,-15.516 19.633,-17.555 31.437,-6.504 133.633,-28.871 218.023,-47.418 -0.375,3.742 -0.566,7.504 -0.566,11.266 0,23.226 7.258,45.765 20.636,64.637 -76.543,16.808 -196.019,42.976 -223.757,48.718 -1.434,0.297 -2.817,0.43 -4.153,0.43 z m -64.422,67.148 c -53.543,0 -97.105,-43.566 -97.105,-97.109 0,-53.551 43.562,-97.113 97.105,-97.113 26.754,0 52.391,11.277 70.641,30.648 -7.949,1.699 -14.555,3.094 -19.437,4.106 v 0 c -15.043,3.109 -25.997,12.89 -30.84,27.531 -6.735,20.359 -0.473,48.441 14.558,65.316 10.34,11.61 23.371,16.481 36.692,13.731 3.847,-0.797 9.496,-1.992 16.578,-3.508 -15.664,34.211 -49.637,56.398 -88.192,56.398" /></g></g></svg>